<svg width="114" height="81" viewBox="0 0 114 81" fill="none" xmlns="http://www.w3.org/2000/svg">
<path opacity="0.1" d="M113.147 24.3C113.147 36.45 110.489 47.5875 105.173 57.7125C99.8578 67.8375 92.0109 75.5578 81.6328 80.8735L68.7234 70.2422C74.5453 68.2172 79.6078 63.7875 83.9109 56.9531C88.9734 49.8656 91.5047 43.411 91.5047 37.5891H66.825V0H113.147V24.3ZM46.3219 24.3C46.3219 36.1969 43.5375 47.5875 37.9688 58.4719C32.1469 69.3563 24.4266 76.8234 14.8078 80.8735L1.89844 70.2422C7.72031 68.2172 12.7828 63.7875 17.0859 56.9531C22.1484 49.8656 24.6797 43.411 24.6797 37.5891H0V0H46.3219V24.3Z" fill="#00F39C"/>
</svg>
